{
  "accessors": [
    {
      "bufferView": 2,
      "componentType": 5126,
      "count": 65532,
      "max": [
        9.1644763946533203,
        8.7635335922241211,
        12.04686164855957
      ],
      "min": [
        -11.8172607421875,
        -10.344080924987793,
        -13.939909934997559
      ],
      "type": "VEC3"
    },
    {
      "bufferView": 2,
      "byteOffset": 786384,
      "componentType": 5126,
      "count": 65532,
      "max": [
        0.99999576807022095,
        0.99984222650527954,
        0.99999237060546875
      ],
      "min": [
        -0.99978935718536377,
        -0.9996647834777832,
        -0.99990558624267578
      ],
      "type": "VEC3"
    },
    {
      "bufferView": 3,
      "componentType": 5126,
      "count": 65532,
      "max": [
        0.99999982118606567,
        0.99966663122177124,
        0.999980628490448,
        1
      ],
      "min": [
        -0.99996274709701538,
        -0.99992424249649048,
        -0.99991750717163086,
        -1
      ],
      "type": "VEC4"
    },
    {
      "bufferView": 3,
      "byteOffset": 1048512,
      "componentType": 5126,
      "count": 65532,
      "max": [
        1,
        1,
        1,
        1
      ],
      "min": [
        0,
        0,
        0,
        1
      ],
      "type": "VEC4"
    },
    {
      "bufferView": 1,
      "componentType": 5126,
      "count": 65532,
      "max": [
        1,
        0.94732201099395752
      ],
      "min": [
        0,
        0.0020059999078512192
      ],
      "type": "VEC2"
    },
    {
      "bufferView": 0,
      "componentType": 5125,
      "count": 321741,
      "max": [
        65531
      ],
      "min": [
        0
      ],
      "type": "SCALAR"
    },
    {
      "bufferView": 2,
      "byteOffset": 1572768,
      "componentType": 5126,
      "count": 64340,
      "max": [
        9.1664190292358398,
        8.7921419143676758,
        12.021312713623047
      ],
      "min": [
        -11.8172607421875,
        -10.341741561889648,
        -13.946891784667969
      ],
      "type": "VEC3"
    },
    {
      "bufferView": 2,
      "byteOffset": 2344848,
      "componentType": 5126,
      "count": 64340,
      "max": [
        0.99999576807022095,
        0.99997937679290771,
        0.99999237060546875
      ],
      "min": [
        -0.9999229907989502,
        -0.99973797798156738,
        -0.99990558624267578
      ],
      "type": "VEC3"
    },
    {
      "bufferView": 3,
      "byteOffset": 2097024,
      "componentType": 5126,
      "count": 64340,
      "max": [
        0.99998575448989868,
        0.99977189302444458,
        0.999980628490448,
        1
      ],
      "min": [
        -0.99999374151229858,
        -0.99995511770248413,
        -0.99995559453964233,
        -1
      ],
      "type": "VEC4"
    },
    {
      "bufferView": 3,
      "byteOffset": 3126464,
      "componentType": 5126,
      "count": 64340,
      "max": [
        1,
        1,
        1,
        1
      ],
      "min": [
        0,
        0,
        0,
        1
      ],
      "type": "VEC4"
    },
    {
      "bufferView": 1,
      "byteOffset": 524256,
      "componentType": 5126,
      "count": 64340,
      "max": [
        1,
        0.96836698055267334
      ],
      "min": [
        0.00067199999466538429,
        0.0010999999940395355
      ],
      "type": "VEC2"
    },
    {
      "bufferView": 0,
      "byteOffset": 1286964,
      "componentType": 5125,
      "count": 278259,
      "max": [
        64339
      ],
      "min": [
        0
      ],
      "type": "SCALAR"
    }
  ],
  "asset": {
    "extras": {
      "author": "Digital Archive of Natural History (DiNArDa) (https://sketchfab.com/disc3d)",
      "license": "CC-BY-4.0 (http://creativecommons.org/licenses/by/4.0/)",
      "source": "https://sketchfab.com/3d-models/melitaea-britomartis-20a41658fa284141815977b277a08520",
      "title": "Melitaea britomartis"
    },
    "generator": "Sketchfab-6.66.0",
    "version": "2.0"
  },
  "bufferViews": [
    {
      "buffer": 0,
      "byteLength": 2400000,
      "byteOffset": 0,
      "name": "floatBufferViews",
      "target": 34963
    },
    {
      "buffer": 0,
      "byteLength": 1038976,
      "byteOffset": 2400000,
      "byteStride": 8,
      "name": "floatBufferViews",
      "target": 34962
    },
    {
      "buffer": 0,
      "byteLength": 3116928,
      "byteOffset": 3438976,
      "byteStride": 12,
      "name": "floatBufferViews",
      "target": 34962
    },
    {
      "buffer": 0,
      "byteLength": 4155904,
      "byteOffset": 6555904,
      "byteStride": 16,
      "name": "floatBufferViews",
      "target": 34962
    }
  ],
  "buffers": [
    {
      "byteLength": 10711808,
      "uri": "scene.bin"
    }
  ],
  "images": [
    {
      "uri": "textures/Melitaea_britomartis_sf.1001_baseColor.jpeg"
    }
  ],
  "materials": [
    {
      "doubleSided": true,
      "emissiveFactor": [
        0,
        0,
        0
      ],
      "name": "Melitaea_britomartis_sf.1001",
      "pbrMetallicRoughness": {
        "baseColorFactor": [
          1,
          1,
          1,
          1
        ],
        "baseColorTexture": {
          "index": 0,
          "texCoord": 0
        },
        "metallicFactor": 0,
        "roughnessFactor": 1
      }
    }
  ],
  "meshes": [
    {
      "primitives": [
        {
          "attributes": {
            "COLOR_0": 3,
            "NORMAL": 1,
            "POSITION": 0,
            "TANGENT": 2,
            "TEXCOORD_0": 4
          },
          "indices": 5,
          "material": 0,
          "mode": 4
        }
      ]
    },
    {
      "primitives": [
        {
          "attributes": {
            "COLOR_0": 9,
            "NORMAL": 7,
            "POSITION": 6,
            "TANGENT": 8,
            "TEXCOORD_0": 10
          },
          "indices": 11,
          "material": 0,
          "mode": 4
        }
      ]
    }
  ],
  "nodes": [
    {
      "children": [
        1
      ],
      "name": "RootNode (gltf orientation matrix)",
      "rotation": [
        -0.70710678118654746,
        -0,
        -0,
        0.70710678118654757
      ]
    },
    {
      "children": [
        2
      ],
      "matrix": [
        0.49526628851890564,
        0.86824619770050049,
        0.029322365298867226,
        0,
        0.0086639029905200005,
        0.028814580291509628,
        -0.99954724311828613,
        0,
        -0.86869800090789795,
        0.49529609084129333,
        0.0067484895698726177,
        0,
        -1.487555980682373,
        0.86773109436035156,
        -1.6803776025772095,
        1
      ],
      "name": "RootNode (model correction matrix)"
    },
    {
      "children": [
        3,
        4
      ],
      "name": "Melitaea_britomartis_sf.obj.cleaner.materialmerger.gles"
    },
    {
      "mesh": 0,
      "name": ""
    },
    {
      "mesh": 1,
      "name": ""
    }
  ],
  "samplers": [
    {
      "magFilter": 9729,
      "minFilter": 9987,
      "wrapS": 10497,
      "wrapT": 10497
    }
  ],
  "scene": 0,
  "scenes": [
    {
      "name": "OSG_Scene",
      "nodes": [
        0
      ]
    }
  ],
  "textures": [
    {
      "sampler": 0,
      "source": 0
    }
  ]
}

