{
  "accessors": [
    {
      "bufferView": 2,
      "componentType": 5126,
      "count": 2266,
      "max": [
        10.138442039489746,
        6.4453287124633789,
        10.265811920166016
      ],
      "min": [
        -9.9635858535766602,
        -7.9824585914611816,
        -0.17510907351970673
      ],
      "type": "VEC3"
    },
    {
      "bufferView": 2,
      "byteOffset": 27192,
      "componentType": 5126,
      "count": 2266,
      "max": [
        1,
        0.99947339296340942,
        1
      ],
      "min": [
        -0.9999690055847168,
        -0.99959725141525269,
        -0.9997212290763855
      ],
      "type": "VEC3"
    },
    {
      "bufferView": 3,
      "componentType": 5126,
      "count": 2266,
      "max": [
        0.99673020839691162,
        1,
        0.99910223484039307,
        1
      ],
      "min": [
        -0.99993801116943359,
        -1,
        -0.99873143434524536,
        1
      ],
      "type": "VEC4"
    },
    {
      "bufferView": 3,
      "byteOffset": 36256,
      "componentType": 5126,
      "count": 2266,
      "max": [
        1,
        0,
        0,
        1
      ],
      "min": [
        1,
        0,
        0,
        1
      ],
      "type": "VEC4"
    },
    {
      "bufferView": 1,
      "componentType": 5126,
      "count": 2266,
      "max": [
        0.9921875,
        0.9859161376953125
      ],
      "min": [
        0.0019989013671875,
        0.00244140625
      ],
      "type": "VEC2"
    },
    {
      "bufferView": 1,
      "byteOffset": 18128,
      "componentType": 5126,
      "count": 2266,
      "max": [
        0.990234375,
        0.9921875
      ],
      "min": [
        0.0078125,
        0.037109375
      ],
      "type": "VEC2"
    },
    {
      "bufferView": 0,
      "componentType": 5125,
      "count": 10632,
      "max": [
        2265
      ],
      "min": [
        0
      ],
      "type": "SCALAR"
    }
  ],
  "asset": {
    "extras": {
      "author": "schmoldt.art (https://sketchfab.com/schmoldt.art)",
      "license": "CC-BY-4.0 (http://creativecommons.org/licenses/by/4.0/)",
      "source": "https://sketchfab.com/3d-models/teddy-bear-f7f6c575184e4b95b43f2e5fd9cebe4c",
      "title": "Teddy Bear"
    },
    "generator": "Sketchfab-8.46.0",
    "version": "2.0"
  },
  "bufferViews": [
    {
      "buffer": 0,
      "byteLength": 42528,
      "byteOffset": 0,
      "name": "floatBufferViews",
      "target": 34963
    },
    {
      "buffer": 0,
      "byteLength": 36256,
      "byteOffset": 42528,
      "byteStride": 8,
      "name": "floatBufferViews",
      "target": 34962
    },
    {
      "buffer": 0,
      "byteLength": 54384,
      "byteOffset": 78784,
      "byteStride": 12,
      "name": "floatBufferViews",
      "target": 34962
    },
    {
      "buffer": 0,
      "byteLength": 72512,
      "byteOffset": 133168,
      "byteStride": 16,
      "name": "floatBufferViews",
      "target": 34962
    }
  ],
  "buffers": [
    {
      "byteLength": 205680,
      "uri": "scene.bin"
    }
  ],
  "images": [
    {
      "uri": "textures/Teddy_Inst_baseColor.png"
    },
    {
      "uri": "textures/Teddy_Inst_metallicRoughness.png"
    },
    {
      "uri": "textures/Teddy_Inst_normal.png"
    }
  ],
  "materials": [
    {
      "doubleSided": true,
      "emissiveFactor": [
        0,
        0,
        0
      ],
      "name": "Teddy_Inst",
      "normalTexture": {
        "index": 2,
        "scale": 1,
        "texCoord": 0
      },
      "pbrMetallicRoughness": {
        "baseColorFactor": [
          1,
          1,
          1,
          1
        ],
        "baseColorTexture": {
          "index": 0,
          "texCoord": 0
        },
        "metallicFactor": 0,
        "metallicRoughnessTexture": {
          "index": 1,
          "texCoord": 1
        },
        "roughnessFactor": 0.10000000000000001
      }
    }
  ],
  "meshes": [
    {
      "name": "TeddyBearPT_Teddy_Inst_0",
      "primitives": [
        {
          "attributes": {
            "COLOR_0": 3,
            "NORMAL": 1,
            "POSITION": 0,
            "TANGENT": 2,
            "TEXCOORD_0": 4,
            "TEXCOORD_1": 5
          },
          "indices": 6,
          "material": 0,
          "mode": 4
        }
      ]
    }
  ],
  "nodes": [
    {
      "children": [
        1
      ],
      "name": "RootNode (gltf orientation matrix)",
      "rotation": [
        -0.70710678118654746,
        -0,
        -0,
        0.70710678118654757
      ]
    },
    {
      "children": [
        2
      ],
      "matrix": [
        -1,
        0,
        -2.832769343193999e-16,
        0,
        0,
        1,
        0,
        0,
        2.832769343193999e-16,
        0,
        -1,
        0,
        0.17485141754150391,
        0,
        -10.090710639953613,
        1
      ],
      "name": "RootNode (model correction matrix)"
    },
    {
      "children": [
        3
      ],
      "matrix": [
        1,
        0,
        0,
        0,
        0,
        -1,
        0,
        0,
        0,
        0,
        -1,
        0,
        0,
        0,
        0,
        1
      ],
      "name": "34657ee863924de7bad417c2deaeb7af.fbx"
    },
    {
      "children": [
        4
      ],
      "name": "RootNode"
    },
    {
      "children": [
        5
      ],
      "name": "TeddyBearPT"
    },
    {
      "mesh": 0,
      "name": "TeddyBearPT_Teddy_Inst_0"
    }
  ],
  "samplers": [
    {
      "magFilter": 9729,
      "minFilter": 9987,
      "wrapS": 10497,
      "wrapT": 10497
    }
  ],
  "scene": 0,
  "scenes": [
    {
      "name": "OSG_Scene",
      "nodes": [
        0
      ]
    }
  ],
  "textures": [
    {
      "sampler": 0,
      "source": 0
    },
    {
      "sampler": 0,
      "source": 1
    },
    {
      "sampler": 0,
      "source": 2
    }
  ]
}

