{
  "accessors": [
    {
      "bufferView": 2,
      "componentType": 5126,
      "count": 598,
      "max": [
        35.597133636474609,
        41.243862152099609,
        69.117156982421875
      ],
      "min": [
        -35.597133636474609,
        -32.074989318847656,
        0
      ],
      "type": "VEC3"
    },
    {
      "bufferView": 2,
      "byteOffset": 7176,
      "componentType": 5126,
      "count": 598,
      "max": [
        1,
        1,
        1
      ],
      "min": [
        -1,
        -1,
        -1
      ],
      "type": "VEC3"
    },
    {
      "bufferView": 3,
      "componentType": 5126,
      "count": 598,
      "max": [
        1,
        0.99999815225601196,
        0.99999839067459106,
        1
      ],
      "min": [
        -1,
        -0.99999815225601196,
        -0.99999988079071045,
        -1
      ],
      "type": "VEC4"
    },
    {
      "bufferView": 1,
      "componentType": 5126,
      "count": 598,
      "max": [
        0.93217480182647705,
        0.99950003623962402
      ],
      "min": [
        0.00050000002374872565,
        0.00050000002374872565
      ],
      "type": "VEC2"
    },
    {
      "bufferView": 0,
      "componentType": 5125,
      "count": 1740,
      "max": [
        597
      ],
      "min": [
        0
      ],
      "type": "SCALAR"
    },
    {
      "bufferView": 2,
      "byteOffset": 14352,
      "componentType": 5126,
      "count": 1848,
      "max": [
        17.428607940673828,
        8.3889627456665039,
        2.5139672756195068
      ],
      "min": [
        -17.428607940673828,
        -9.1837882995605469,
        0
      ],
      "type": "VEC3"
    },
    {
      "bufferView": 2,
      "byteOffset": 36528,
      "componentType": 5126,
      "count": 1848,
      "max": [
        1,
        1,
        1
      ],
      "min": [
        -1,
        -1,
        -1
      ],
      "type": "VEC3"
    },
    {
      "bufferView": 3,
      "byteOffset": 9568,
      "componentType": 5126,
      "count": 1848,
      "max": [
        1,
        1,
        0.28598052263259888,
        1
      ],
      "min": [
        -6.693200589324988e-07,
        -1,
        -2.8451282219066343e-07,
        -1
      ],
      "type": "VEC4"
    },
    {
      "bufferView": 1,
      "byteOffset": 4784,
      "componentType": 5126,
      "count": 1848,
      "max": [
        0.99985396862030029,
        0.98826736211776733
      ],
      "min": [
        0.00014606118202209473,
        0.011732637882232666
      ],
      "type": "VEC2"
    },
    {
      "bufferView": 0,
      "byteOffset": 6960,
      "componentType": 5125,
      "count": 2772,
      "max": [
        1847
      ],
      "min": [
        0
      ],
      "type": "SCALAR"
    }
  ],
  "asset": {
    "extras": {
      "author": "MANUGR (https://sketchfab.com/MANUGR)",
      "license": "CC-BY-4.0 (http://creativecommons.org/licenses/by/4.0/)",
      "source": "https://sketchfab.com/3d-models/mac-laptop-8018f263bfe14dd68584cbff81a68a23",
      "title": "MAC LAPTOP"
    },
    "generator": "Sketchfab-5.58.0",
    "version": "2.0"
  },
  "bufferViews": [
    {
      "buffer": 0,
      "byteLength": 18048,
      "byteOffset": 0,
      "name": "floatBufferViews",
      "target": 34963
    },
    {
      "buffer": 0,
      "byteLength": 19568,
      "byteOffset": 18048,
      "byteStride": 8,
      "name": "floatBufferViews",
      "target": 34962
    },
    {
      "buffer": 0,
      "byteLength": 58704,
      "byteOffset": 37616,
      "byteStride": 12,
      "name": "floatBufferViews",
      "target": 34962
    },
    {
      "buffer": 0,
      "byteLength": 39136,
      "byteOffset": 96320,
      "byteStride": 16,
      "name": "floatBufferViews",
      "target": 34962
    }
  ],
  "buffers": [
    {
      "byteLength": 135456,
      "uri": "scene.bin"
    }
  ],
  "images": [
    {
      "uri": "textures/Material_27_baseColor.png"
    },
    {
      "uri": "textures/Material_28_baseColor.jpeg"
    }
  ],
  "materials": [
    {
      "doubleSided": true,
      "emissiveFactor": [
        0,
        0,
        0
      ],
      "name": "Material_27",
      "pbrMetallicRoughness": {
        "baseColorFactor": [
          1,
          1,
          1,
          1
        ],
        "baseColorTexture": {
          "index": 0,
          "texCoord": 0
        },
        "metallicFactor": 0,
        "roughnessFactor": 0.89297135959999996
      }
    },
    {
      "doubleSided": true,
      "emissiveFactor": [
        0,
        0,
        0
      ],
      "name": "Material_28",
      "pbrMetallicRoughness": {
        "baseColorFactor": [
          1,
          1,
          1,
          1
        ],
        "baseColorTexture": {
          "index": 1,
          "texCoord": 0
        },
        "metallicFactor": 0,
        "roughnessFactor": 0.89297135959999996
      }
    }
  ],
  "meshes": [
    {
      "name": "portatil_Material #27_0",
      "primitives": [
        {
          "attributes": {
            "NORMAL": 1,
            "POSITION": 0,
            "TANGENT": 2,
            "TEXCOORD_0": 3
          },
          "indices": 4,
          "material": 0,
          "mode": 4
        }
      ]
    },
    {
      "name": "Box001_Material #28_0",
      "primitives": [
        {
          "attributes": {
            "NORMAL": 6,
            "POSITION": 5,
            "TANGENT": 7,
            "TEXCOORD_0": 8
          },
          "indices": 9,
          "material": 1,
          "mode": 4
        }
      ]
    }
  ],
  "nodes": [
    {
      "children": [
        1
      ],
      "name": "RootNode (gltf orientation matrix)",
      "rotation": [
        -0.70710678118654746,
        -0,
        -0,
        0.70710678118654757
      ]
    },
    {
      "children": [
        2
      ],
      "matrix": [
        1,
        0,
        0,
        0,
        0,
        1,
        0,
        0,
        0,
        0,
        1,
        0,
        1.2153000170656014e-06,
        1.7485000398664852e-06,
        0,
        1
      ],
      "name": "RootNode (model correction matrix)"
    },
    {
      "children": [
        3
      ],
      "matrix": [
        1,
        0,
        0,
        0,
        0,
        0,
        1,
        0,
        0,
        -1,
        0,
        0,
        0,
        0,
        0,
        1
      ],
      "name": "3ee24ebe9b474788aa93f771128b58ab.fbx"
    },
    {
      "children": [
        4,
        6
      ],
      "name": "RootNode"
    },
    {
      "children": [
        5
      ],
      "matrix": [
        -0.32577872276305786,
        -3.9896393058745423e-17,
        4.9191218138656756e-08,
        0,
        3.4446558518901418e-08,
        -1.0130973961582012e-16,
        0.22812925279140214,
        0,
        -2.7937768083563428e-17,
        0.22812925279140472,
        7.5982304711865087e-17,
        0,
        -24.576959609985352,
        85.647537231445312,
        78.074302673339844,
        1
      ],
      "name": "portatil"
    },
    {
      "mesh": 0,
      "name": "portatil_Material #27_0"
    },
    {
      "children": [
        7
      ],
      "matrix": [
        -0.6080332398414543,
        7.4462607391153717e-17,
        -9.1810470328328285e-08,
        0,
        -6.2269862300567329e-08,
        -1.8314001108072687e-16,
        0.41239464282989036,
        0,
        3.2469089592896575e-17,
        0.26513031125068665,
        8.8306132822963949e-17,
        0,
        -24.549278259277344,
        85.874465942382812,
        81.580741882324219,
        1
      ],
      "name": "Box001"
    },
    {
      "mesh": 1,
      "name": "Box001_Material #28_0"
    }
  ],
  "samplers": [
    {
      "magFilter": 9729,
      "minFilter": 9987,
      "wrapS": 10497,
      "wrapT": 10497
    }
  ],
  "scene": 0,
  "scenes": [
    {
      "name": "OSG_Scene",
      "nodes": [
        0
      ]
    }
  ],
  "textures": [
    {
      "sampler": 0,
      "source": 0
    },
    {
      "sampler": 0,
      "source": 1
    }
  ]
}

